<?xml version="1.0" encoding="UTF-8"?>
<svg width="202px" height="176px" viewBox="0 0 202 176" version="1.1" xmlns="http://www.w3.org/2000/svg" xmlns:xlink="http://www.w3.org/1999/xlink">
    <!-- Generator: Sketch 43.1 (39012) - http://www.bohemiancoding.com/sketch -->
    <title>plane</title>
    <desc>Created with Sketch.</desc>
    <defs>
        <polygon id="path-1" points="0 0.8027 0 59.4287 92.1445 59.4287 92.1445 0.8027 8.13151629e-20 0.8027"></polygon>
        <polygon id="path-3" points="92.856 59.4287 92.856 0.8027 0.7144 0.8027 0.7144 59.4287 92.856 59.4287"></polygon>
        <polygon id="path-5" points="0.0445 32 5.8145 32 5.8145 0.7222 0.0445 0.7222 0.0445 32"></polygon>
    </defs>
    <g id="Page-1" stroke="none" stroke-width="1" fill="none" fill-rule="evenodd">
        <g id="Flights" transform="translate(-1095.000000, -253.000000)">
            <g id="plane" transform="translate(1196.000000, 341.500000) scale(1, -1) translate(-1196.000000, -341.500000) translate(1095.000000, 253.000000)">
                <polygon id="Fill-1" fill="#FF902C" points="95.252 141.052 64.998 161.814 64.998 169.888 98.104 161.814"></polygon>
                <polygon id="Fill-2" fill="#FF6510" points="106.6006 141.052 136.8606 161.814 136.8606 169.888 103.7566 161.814"></polygon>
                <g id="Group-44" transform="translate(0.000000, 0.925000)">
                    <path d="M29.9551,118.3799 C29.9551,119.5109 29.0381,120.4289 27.9081,120.4289 C26.7801,120.4289 25.8641,119.5109 25.8641,118.3799 L25.8641,107.2379 C25.8641,106.1089 26.7801,105.1919 27.9081,105.1919 C29.0381,105.1919 29.9551,106.1089 29.9551,107.2379 L29.9551,118.3799 Z" id="Fill-3" fill="#FF902C"></path>
                    <path d="M46.0723,114.4697 C46.0723,115.5997 45.1573,116.5167 44.0263,116.5167 C42.8983,116.5167 41.9833,115.5997 41.9833,114.4697 L41.9833,103.3287 C41.9833,102.1987 42.8983,101.2817 44.0263,101.2817 C45.1573,101.2817 46.0723,102.1987 46.0723,103.3287 L46.0723,114.4697 Z" id="Fill-5" fill="#FF902C"></path>
                    <path d="M62.1904,110.5586 C62.1904,111.6896 61.2754,112.6046 60.1464,112.6046 C59.0154,112.6046 58.0994,111.6896 58.0994,110.5586 L58.0994,99.4176 C58.0994,98.2876 59.0154,97.3706 60.1464,97.3706 C61.2754,97.3706 62.1904,98.2876 62.1904,99.4176 L62.1904,110.5586 Z" id="Fill-7" fill="#FF902C"></path>
                    <path d="M78.3105,106.6475 C78.3105,107.7805 77.3935,108.6955 76.2655,108.6955 C75.1345,108.6955 74.2165,107.7805 74.2165,106.6475 L74.2165,95.5065 C74.2165,94.3765 75.1345,93.4585 76.2655,93.4585 C77.3935,93.4585 78.3105,94.3765 78.3105,95.5065 L78.3105,106.6475 Z" id="Fill-9" fill="#FF902C"></path>
                    <path d="M38.8604,72.459 L38.8604,82.919 C38.8604,84.96 39.8474,86.875 41.5124,88.057 L44.9574,90.502 L51.0494,86.174 L51.0494,72.459 L38.8604,72.459 Z" id="Fill-11" fill="#76C1FF"></path>
                    <path d="M61.7842,61.3525 L61.7842,71.8145 C61.7842,73.8555 62.7702,75.7685 64.4342,76.9505 L67.8772,79.3975 L73.9722,75.0665 L73.9722,61.3525 L61.7842,61.3525 Z" id="Fill-13" fill="#76C1FF"></path>
                    <g id="Group-17" transform="translate(0.000000, 61.000000)">
                        <mask id="mask-2" fill="white">
                            <use xlink:href="#path-1"></use>
                        </mask>
                        <g id="Clip-16"></g>
                        <path d="M92.1445,0.8027 L92.1445,39.7797 L75.5455,39.7797 L-0.0005,59.4287 C1.5415,50.3327 1.3355,44.7927 7.3495,41.8787 L92.1445,0.8027 Z" id="Fill-15" fill="#F2F2F2" mask="url(#mask-2)"></path>
                    </g>
                    <path d="M171.9033,118.3799 C171.9033,119.5109 172.8213,120.4289 173.9503,120.4289 C175.0793,120.4289 175.9953,119.5109 175.9953,118.3799 L175.9953,107.2379 C175.9953,106.1089 175.0793,105.1919 173.9503,105.1919 C172.8213,105.1919 171.9033,106.1089 171.9033,107.2379 L171.9033,118.3799 Z" id="Fill-18" fill="#FF902C"></path>
                    <path d="M155.7842,114.4697 C155.7842,115.5997 156.7022,116.5167 157.8332,116.5167 C158.9602,116.5167 159.8782,115.5997 159.8782,114.4697 L159.8782,103.3287 C159.8782,102.1987 158.9602,101.2817 157.8332,101.2817 C156.7022,101.2817 155.7842,102.1987 155.7842,103.3287 L155.7842,114.4697 Z" id="Fill-20" fill="#FF902C"></path>
                    <path d="M139.6699,110.5586 C139.6699,111.6896 140.5809,112.6046 141.7099,112.6046 C142.8409,112.6046 143.7599,111.6896 143.7599,110.5586 L143.7599,99.4176 C143.7599,98.2876 142.8409,97.3706 141.7099,97.3706 C140.5809,97.3706 139.6699,98.2876 139.6699,99.4176 L139.6699,110.5586 Z" id="Fill-22" fill="#FF902C"></path>
                    <path d="M123.5508,106.6475 C123.5508,107.7805 124.4648,108.6955 125.5928,108.6955 C126.7248,108.6955 127.6408,107.7805 127.6408,106.6475 L127.6408,95.5065 C127.6408,94.3765 126.7248,93.4585 125.5928,93.4585 C124.4648,93.4585 123.5508,94.3765 123.5508,95.5065 L123.5508,106.6475 Z" id="Fill-24" fill="#FF902C"></path>
                    <path d="M162.9971,72.459 L162.9971,82.919 C162.9971,84.96 162.0081,86.875 160.3451,88.057 L156.9021,90.502 L150.8081,86.174 L150.8081,72.459 L162.9971,72.459 Z" id="Fill-26" fill="#76C1FF"></path>
                    <path d="M140.0742,61.3525 L140.0742,71.8145 C140.0742,73.8555 139.0852,75.7685 137.4222,76.9505 L133.9792,79.3975 L127.8852,75.0665 L127.8852,61.3525 L140.0742,61.3525 Z" id="Fill-28" fill="#76C1FF"></path>
                    <g id="Group-32" transform="translate(109.000000, 61.000000)">
                        <mask id="mask-4" fill="white">
                            <use xlink:href="#path-3"></use>
                        </mask>
                        <g id="Clip-31"></g>
                        <path d="M0.7144,0.8027 L0.7144,39.7797 L17.3114,39.7797 L92.8564,59.4287 C91.3184,50.3327 91.5204,44.7927 85.5064,41.8787 L0.7144,0.8027 Z" id="Fill-30" fill="#F2F2F2" mask="url(#mask-4)"></path>
                    </g>
                    <path d="M100.9287,0.0752 L100.9287,164.2242 C95.3277,161.2382 93.7987,149.1442 92.2437,119.5472 C91.3937,103.3512 90.5307,81.9152 88.9917,53.8622 C87.5737,21.5542 89.2627,4.5792 100.9287,0.0752" id="Fill-33" fill="#F2F2F2"></path>
                    <path d="M100.9287,0.0752 L100.9287,164.2242 C106.5317,161.2382 108.0587,149.1442 109.6127,119.5472 C110.4657,103.3512 111.3257,81.9152 112.8677,53.8622 C114.2867,21.5542 112.5947,4.5792 100.9287,0.0752" id="Fill-35" fill="#BCC1C1"></path>
                    <path d="M99.6646,10.2861 C96.8176,10.7041 94.4226,12.5111 93.1836,14.9991 C94.9896,13.9771 97.2256,13.3351 99.6646,13.1581 L99.6646,10.2861 Z" id="Fill-37" fill="#4F5355"></path>
                    <path d="M102.1904,13.1582 C104.6284,13.3352 106.8654,13.9772 108.6744,14.9992 C107.4314,12.5112 105.0424,10.7042 102.1904,10.2862 L102.1904,13.1582 Z" id="Fill-39" fill="#4F5355"></path>
                    <g id="Group-43" transform="translate(98.000000, 144.000000)">
                        <mask id="mask-6" fill="white">
                            <use xlink:href="#path-5"></use>
                        </mask>
                        <g id="Clip-42"></g>
                        <path d="M5.8145,29.1162 C5.8145,30.7092 4.5225,32.0002 2.9285,32.0002 C1.3365,32.0002 0.0445,30.7092 0.0445,29.1162 L0.0445,3.6052 C0.0445,2.0132 1.3365,0.7222 2.9285,0.7222 C4.5225,0.7222 5.8145,2.0132 5.8145,3.6052 L5.8145,29.1162 Z" id="Fill-41" fill="#76C1FF" mask="url(#mask-6)"></path>
                    </g>
                </g>
            </g>
        </g>
    </g>
</svg>