<?xml version="1.0" encoding="UTF-8"?>
<svg width="278px" height="825px" viewBox="0 0 278 825" version="1.1" xmlns="http://www.w3.org/2000/svg" xmlns:xlink="http://www.w3.org/1999/xlink">
    <!-- Generator: Sketch 43.1 (39012) - http://www.bohemiancoding.com/sketch -->
    <title>runway</title>
    <desc>Created with Sketch.</desc>
    <defs></defs>
    <g id="Page-1" stroke="none" stroke-width="1" fill="none" fill-rule="evenodd">
        <g id="Lander" transform="translate(-1057.000000, 0.000000)">
            <g id="runway" transform="translate(1057.000000, 0.000000)">
                <g>
                    <polygon id="Fill-1" fill="#435D77" points="0 298.595 138.543 298.595 138.543 0 0 0"></polygon>
                    <polygon id="Fill-2" fill="#29343D" points="138.543 298.595 277.085 298.595 277.085 0 138.543 0"></polygon>
                    <polygon id="Fill-3" fill="#F2F2F2" points="19.251 34.036 27.033 34.036 27.033 0.001 19.251 0.001"></polygon>
                    <polygon id="Fill-4" fill="#F2F2F2" points="19.251 86.947 27.033 86.947 27.033 52.914 19.251 52.914"></polygon>
                    <polygon id="Fill-5" fill="#F2F2F2" points="19.251 139.859 27.033 139.859 27.033 105.825 19.251 105.825"></polygon>
                    <polygon id="Fill-6" fill="#F2F2F2" points="19.251 192.77 27.033 192.77 27.033 158.736 19.251 158.736"></polygon>
                    <polygon id="Fill-7" fill="#F2F2F2" points="19.251 245.681 27.033 245.681 27.033 211.649 19.251 211.649"></polygon>
                    <polygon id="Fill-8" fill="#F2F2F2" points="19.251 298.595 27.033 298.595 27.033 264.56 19.251 264.56"></polygon>
                    <polygon id="Fill-9" fill="#F2F2F2" points="250.051 34.036 257.832 34.036 257.832 0.001 250.051 0.001"></polygon>
                    <polygon id="Fill-10" fill="#F2F2F2" points="250.052 86.947 257.833 86.947 257.833 52.914 250.052 52.914"></polygon>
                    <polygon id="Fill-11" fill="#F2F2F2" points="250.052 139.859 257.833 139.859 257.833 105.825 250.052 105.825"></polygon>
                    <polygon id="Fill-12" fill="#F2F2F2" points="250.052 192.77 257.833 192.77 257.833 158.736 250.052 158.736"></polygon>
                    <polygon id="Fill-13" fill="#F2F2F2" points="250.052 245.681 257.833 245.681 257.833 211.649 250.052 211.649"></polygon>
                    <polygon id="Fill-14" fill="#F2F2F2" points="250.051 298.595 257.832 298.595 257.832 264.56 250.051 264.56"></polygon>
                </g>
                <g id="runway-copy" transform="translate(0.000000, 262.000000)">
                    <polygon id="Fill-1" fill="#435D77" points="0 298.595 138.543 298.595 138.543 0 0 0"></polygon>
                    <polygon id="Fill-2" fill="#29343D" points="138.543 298.595 277.085 298.595 277.085 0 138.543 0"></polygon>
                    <polygon id="Fill-3" fill="#F2F2F2" points="19.251 34.036 27.033 34.036 27.033 0.001 19.251 0.001"></polygon>
                    <polygon id="Fill-4" fill="#F2F2F2" points="19.251 86.947 27.033 86.947 27.033 52.914 19.251 52.914"></polygon>
                    <polygon id="Fill-5" fill="#F2F2F2" points="19.251 139.859 27.033 139.859 27.033 105.825 19.251 105.825"></polygon>
                    <polygon id="Fill-6" fill="#F2F2F2" points="19.251 192.77 27.033 192.77 27.033 158.736 19.251 158.736"></polygon>
                    <polygon id="Fill-7" fill="#F2F2F2" points="19.251 245.681 27.033 245.681 27.033 211.649 19.251 211.649"></polygon>
                    <polygon id="Fill-8" fill="#F2F2F2" points="19.251 298.595 27.033 298.595 27.033 264.56 19.251 264.56"></polygon>
                    <polygon id="Fill-9" fill="#F2F2F2" points="250.051 34.036 257.832 34.036 257.832 0.001 250.051 0.001"></polygon>
                    <polygon id="Fill-10" fill="#F2F2F2" points="250.052 86.947 257.833 86.947 257.833 52.914 250.052 52.914"></polygon>
                    <polygon id="Fill-11" fill="#F2F2F2" points="250.052 139.859 257.833 139.859 257.833 105.825 250.052 105.825"></polygon>
                    <polygon id="Fill-12" fill="#F2F2F2" points="250.052 192.77 257.833 192.77 257.833 158.736 250.052 158.736"></polygon>
                    <polygon id="Fill-13" fill="#F2F2F2" points="250.052 245.681 257.833 245.681 257.833 211.649 250.052 211.649"></polygon>
                    <polygon id="Fill-14" fill="#F2F2F2" points="250.051 298.595 257.832 298.595 257.832 264.56 250.051 264.56"></polygon>
                </g>
                <g id="runway-copy-2" transform="translate(0.000000, 526.000000)">
                    <polygon id="Fill-1" fill="#435D77" points="0 298.595 138.543 298.595 138.543 0 0 0"></polygon>
                    <polygon id="Fill-2" fill="#29343D" points="138.543 298.595 277.085 298.595 277.085 0 138.543 0"></polygon>
                    <polygon id="Fill-3" fill="#F2F2F2" points="19.251 34.036 27.033 34.036 27.033 0.001 19.251 0.001"></polygon>
                    <polygon id="Fill-4" fill="#F2F2F2" points="19.251 86.947 27.033 86.947 27.033 52.914 19.251 52.914"></polygon>
                    <polygon id="Fill-5" fill="#F2F2F2" points="19.251 139.859 27.033 139.859 27.033 105.825 19.251 105.825"></polygon>
                    <polygon id="Fill-6" fill="#F2F2F2" points="19.251 192.77 27.033 192.77 27.033 158.736 19.251 158.736"></polygon>
                    <polygon id="Fill-7" fill="#F2F2F2" points="19.251 245.681 27.033 245.681 27.033 211.649 19.251 211.649"></polygon>
                    <polygon id="Fill-8" fill="#F2F2F2" points="19.251 298.595 27.033 298.595 27.033 264.56 19.251 264.56"></polygon>
                    <polygon id="Fill-9" fill="#F2F2F2" points="250.051 34.036 257.832 34.036 257.832 0.001 250.051 0.001"></polygon>
                    <polygon id="Fill-10" fill="#F2F2F2" points="250.052 86.947 257.833 86.947 257.833 52.914 250.052 52.914"></polygon>
                    <polygon id="Fill-11" fill="#F2F2F2" points="250.052 139.859 257.833 139.859 257.833 105.825 250.052 105.825"></polygon>
                    <polygon id="Fill-12" fill="#F2F2F2" points="250.052 192.77 257.833 192.77 257.833 158.736 250.052 158.736"></polygon>
                    <polygon id="Fill-13" fill="#F2F2F2" points="250.052 245.681 257.833 245.681 257.833 211.649 250.052 211.649"></polygon>
                    <polygon id="Fill-14" fill="#F2F2F2" points="250.051 298.595 257.832 298.595 257.832 264.56 250.051 264.56"></polygon>
                </g>
            </g>
        </g>
    </g>
</svg>